<?xml version="1.0" encoding="UTF-8"?>
<svg width="85px" height="83px" viewBox="0 0 85 83" version="1.1" xmlns="http://www.w3.org/2000/svg" xmlns:xlink="http://www.w3.org/1999/xlink">
    <!-- Generator: Sketch 42 (36781) - http://www.bohemiancoding.com/sketch -->
    <title>Group 2</title>
    <desc>Created with Sketch.</desc>
    <defs>
        <linearGradient x1="50%" y1="0%" x2="50%" y2="100%" id="linearGradient-1">
            <stop stop-color="#4FDC0D" offset="0%"></stop>
            <stop stop-color="#97D012" offset="100%"></stop>
        </linearGradient>
    </defs>
    <g id="Page-1" stroke="none" stroke-width="1" fill="none" fill-rule="evenodd">
        <g id="Mobile-Portrait" transform="translate(-24.000000, -153.000000)">
            <g id="Group-2" transform="translate(24.000000, 153.000000)">
                <rect id="Rectangle-10" fill="url(#linearGradient-1)" x="2.96926989e-14" y="0" width="84.2739966" height="82.9824862" rx="19"></rect>
                <g id="ic_add_circle_black_24px" transform="translate(15.000000, 14.000000)">
                    <g id="Group">
                        <polygon id="Shape" points="0 0 54 0 54 54 0 54"></polygon>
                        <path d="M27.5,5 C15.08,5 5,15.08 5,27.5 C5,39.92 15.08,50 27.5,50 C39.92,50 50,39.92 50,27.5 C50,15.08 39.92,5 27.5,5 Z M38.75,29.75 L29.75,29.75 L29.75,38.75 L25.25,38.75 L25.25,29.75 L16.25,29.75 L16.25,25.25 L25.25,25.25 L25.25,16.25 L29.75,16.25 L29.75,25.25 L38.75,25.25 L38.75,29.75 Z" id="Shape" fill="#FFFFFF" fill-rule="nonzero"></path>
                    </g>
                </g>
            </g>
        </g>
    </g>
</svg>