<?xml version="1.0" encoding="UTF-8"?>
<svg width="85px" height="83px" viewBox="0 0 85 83" version="1.1" xmlns="http://www.w3.org/2000/svg" xmlns:xlink="http://www.w3.org/1999/xlink">
    <!-- Generator: Sketch 44.1 (41455) - http://www.bohemiancoding.com/sketch -->
    <title>Slice 1@2x</title>
    <desc>Created with Sketch.</desc>
    <defs>
        <linearGradient x1="50%" y1="0%" x2="50%" y2="100%" id="linearGradient-1">
            <stop stop-color="#F5515F" offset="0%"></stop>
            <stop stop-color="#9F031B" offset="100%"></stop>
        </linearGradient>
        <path d="M43,58 C47.8676692,58 52.4733033,57.2942854 56.5724304,56.0366369 C58.4323723,55.4659903 67.2786942,62.2430984 67.2786942,62.2430984 C67.2786942,62.2430984 64.7004948,52.4753204 65.9639579,51.5994486 C70.9573633,48.137865 74,43.5424421 74,38.5 C74,27.7304474 60.1208272,19 43,19 C25.8791728,19 12,27.7304474 12,38.5 C12,49.2695526 25.8791728,58 43,58 Z" id="path-2"></path>
    </defs>
    <g id="Page-1" stroke="none" stroke-width="1" fill="none" fill-rule="evenodd">
        <g id="icon-1">
            <rect id="Rectangle-10" fill="url(#linearGradient-1)" fill-rule="nonzero" x="5.81144083e-14" y="0" width="84.2739966" height="82.9824862" rx="19"></rect>
            <g id="ic_add_circle_black_24px" transform="translate(15.000000, 14.000000)">
                <g id="Group">
                    <polygon id="Shape" points="0 0 54 0 54 54 0 54"></polygon>
                </g>
            </g>
        </g>
        <g id="Oval" stroke="#FFFFFF">
            <use fill="#FFFFFF" fill-rule="evenodd" xlink:href="#path-2"></use>
            <use xlink:href="#path-2"></use>
        </g>
        <circle id="Oval-2" stroke="#FFFFFF" fill="#E54252" cx="30" cy="37" r="5"></circle>
        <circle id="Oval-2" stroke="#FFFFFF" fill="#E54252" cx="43" cy="37" r="5"></circle>
        <circle id="Oval-2" stroke="#FFFFFF" fill="#E54252" cx="56" cy="37" r="5"></circle>
    </g>
</svg>